ffmpeg started on 2026-04-09 at 15:17:42
Report written to "D:\Convert\FFMetrics\reports\psnr_report-6.txt"
Log level: 32
Command line:
ffmpeg -hide_banner -nostdin -r 24000/1001 -i "F:\\Convert\\files\\[DC] Make Heroine ga Oosugiru - 07_Telegram_HEVC(318).mkv" -r 24000/1001 -i "F:\\Convert\\files\\[DC] Make Heroine ga Oosugiru - 07_Telegram.mp4" -lavfi "[0:v]settb=AVTB,setpts=PTS-STARTPTS,format=pix_fmts=yuv420p10le,fps=24000/1001,scale=1920:1080:flags=lanczos:param0=3:out_range=limited:out_color_matrix=bt709:out_chroma_loc=left,setsar=1/1,setdar=(1920/1080)*(1/1),colorspace=format=yuv420p10:range=tv:primaries=bt709:trc=bt709:space=bt709:fast=0[main];[1:v]settb=AVTB,setpts=PTS-STARTPTS,format=pix_fmts=yuv420p,fps=24000/1001,scale=1920:1080:flags=lanczos:param0=3:out_range=limited:out_color_matrix=bt709:out_chroma_loc=left,setsar=1/1,setdar=(1920/1080)*(1/1),colorspace=format=yuv420p:range=tv:primaries=bt709:trc=bt709:space=bt709:fast=0[ref];[main][ref]psnr=eof_action=endall:stats_file='D\\:/Convert/FFMetrics/logs/psnr_logfile-6.txt'" -f null -
Input #0, matroska,webm, from 'F:\Convert\files\[DC] Make Heroine ga Oosugiru - 07_Telegram_HEVC(318).mkv':
  Metadata:
    COMPATIBLE_BRANDS: isomiso2avc1mp41
    MAJOR_BRAND     : isom
    MINOR_VERSION   : 512
    ENCODER         : Lavf61.7.100
  Duration: 00:24:06.79, start: -0.021000, bitrate: 983 kb/s
  Stream #0:0: Video: hevc (Main 10), yuv420p10le(tv, bt709, progressive), 1920x1080 [SAR 1:1 DAR 16:9], 23.98 fps, 23.98 tbr, 1k tbn (default)
      Metadata:
        HANDLER_NAME    : VideoHandler
        VENDOR_ID       : [0][0][0][0]
        ENCODER         : Lavc61.19.100 libx265
        BPS             : 786118
        DURATION        : 00:24:06.569708333
        NUMBER_OF_FRAMES: 34683
        NUMBER_OF_BYTES : 142146853
        _STATISTICS_WRITING_APP: mkvpropedit v94.0 ('Initiate') 64-bit
        _STATISTICS_WRITING_DATE_UTC: 2026-04-09 10:00:09
        _STATISTICS_TAGS: BPS DURATION NUMBER_OF_FRAMES NUMBER_OF_BYTES
  Stream #0:1: Audio: aac (LC), 48000 Hz, stereo, fltp (default)
      Metadata:
        HANDLER_NAME    : SoundHandler
        VENDOR_ID       : [0][0][0][0]
        ENCODER         : Lavc61.19.100 aac
        BPS             : 193194
        DURATION        : 00:24:06.784000000
        NUMBER_OF_FRAMES: 67819
        NUMBER_OF_BYTES : 34938755
        _STATISTICS_WRITING_APP: mkvpropedit v94.0 ('Initiate') 64-bit
        _STATISTICS_WRITING_DATE_UTC: 2026-04-09 10:00:09
        _STATISTICS_TAGS: BPS DURATION NUMBER_OF_FRAMES NUMBER_OF_BYTES
Input #1, mov,mp4,m4a,3gp,3g2,mj2, from 'F:\Convert\files\[DC] Make Heroine ga Oosugiru - 07_Telegram.mp4':
  Metadata:
    major_brand     : isom
    minor_version   : 512
    compatible_brands: isomiso2avc1mp41
    encoder         : Lavf60.16.100
  Duration: 00:24:06.74, start: 0.000000, bitrate: 3764 kb/s
  Stream #1:0[0x1](und): Video: h264 (High) (avc1 / 0x31637661), yuv420p(tv, bt709, progressive), 1920x1080 [SAR 1:1 DAR 16:9], 3616 kb/s, 23.98 fps, 23.98 tbr, 24k tbn (default)
      Metadata:
        handler_name    : VideoHandler
        vendor_id       : [0][0][0][0]
        encoder         : Lavc60.31.102 h264_qsv
  Stream #1:1[0x2](und): Audio: aac (HE-AACv2) (mp4a / 0x6134706D), 48000 Hz, stereo, fltp, 144 kb/s (default)
      Metadata:
        handler_name    : SoundHandler
        vendor_id       : [0][0][0][0]
Stream mapping:
  Stream #0:0 (hevc) -> settb:default
  Stream #1:0 (h264) -> settb:default
  psnr:default -> Stream #0:0 (wrapped_avframe)
  Stream #0:1 -> #0:1 (aac (native) -> pcm_s16le (native))
Output #0, null, to 'pipe:':
  Metadata:
    COMPATIBLE_BRANDS: isomiso2avc1mp41
    MAJOR_BRAND     : isom
    MINOR_VERSION   : 512
    encoder         : Lavf61.7.100
  Stream #0:0: Video: wrapped_avframe, yuv420p10le(tv, bt709, progressive), 1920x1080 [SAR 1:1 DAR 16:9], q=2-31, 200 kb/s, 23.98 fps, 23.98 tbn
      Metadata:
        encoder         : Lavc61.19.100 wrapped_avframe
  Stream #0:1: Audio: pcm_s16le, 48000 Hz, stereo, s16, 1536 kb/s (default)
      Metadata:
        HANDLER_NAME    : SoundHandler
        VENDOR_ID       : [0][0][0][0]
        _STATISTICS_TAGS: BPS DURATION NUMBER_OF_FRAMES NUMBER_OF_BYTES
        BPS             : 193194
        DURATION        : 00:24:06.784000000
        NUMBER_OF_FRAMES: 67819
        NUMBER_OF_BYTES : 34938755
        _STATISTICS_WRITING_APP: mkvpropedit v94.0 ('Initiate') 64-bit
        _STATISTICS_WRITING_DATE_UTC: 2026-04-09 10:00:09
        encoder         : Lavc61.19.100 pcm_s16le
frame=  115 fps=0.0 q=-0.0 size=N/A time=00:00:04.79 bitrate=N/A speed=9.41x    frame=  300 fps=290 q=-0.0 size=N/A time=00:00:12.51 bitrate=N/A speed=12.1x    frame=  488 fps=315 q=-0.0 size=N/A time=00:00:20.35 bitrate=N/A speed=13.2x    frame=  677 fps=329 q=-0.0 size=N/A time=00:00:28.23 bitrate=N/A speed=13.7x    frame=  857 fps=333 q=-0.0 size=N/A time=00:00:35.74 bitrate=N/A speed=13.9x    frame=  998 fps=322 q=-0.0 size=N/A time=00:00:41.62 bitrate=N/A speed=13.4x    frame= 1152 fps=319 q=-0.0 size=N/A time=00:00:48.04 bitrate=N/A speed=13.3x    frame= 1308 fps=317 q=-0.0 size=N/A time=00:00:54.55 bitrate=N/A speed=13.2x    frame= 1458 fps=314 q=-0.0 size=N/A time=00:01:00.81 bitrate=N/A speed=13.1x    frame= 1597 fps=310 q=-0.0 size=N/A time=00:01:06.60 bitrate=N/A speed=12.9x    frame= 1737 fps=307 q=-0.0 size=N/A time=00:01:12.44 bitrate=N/A speed=12.8x    frame= 1898 fps=307 q=-0.0 size=N/A time=00:01:19.16 bitrate=N/A speed=12.8x    frame= 2049 fps=306 q=-0.0 size=N/A time=00:01:25.46 bitrate=N/A speed=12.7x    frame= 2150 fps=298 q=-0.0 size=N/A time=00:01:29.67 bitrate=N/A speed=12.4x    frame= 2289 fps=296 q=-0.0 size=N/A time=00:01:35.47 bitrate=N/A speed=12.3x    frame= 2430 fps=294 q=-0.0 size=N/A time=00:01:41.35 bitrate=N/A speed=12.3x    frame= 2558 fps=292 q=-0.0 size=N/A time=00:01:46.68 bitrate=N/A speed=12.2x    frame= 2718 fps=293 q=-0.0 size=N/A time=00:01:53.36 bitrate=N/A speed=12.2x    frame= 2883 fps=294 q=-0.0 size=N/A time=00:02:00.24 bitrate=N/A speed=12.3x    frame= 3048 fps=296 q=-0.0 size=N/A time=00:02:07.12 bitrate=N/A speed=12.3x    frame= 3236 fps=299 q=-0.0 size=N/A time=00:02:14.96 bitrate=N/A speed=12.5x    frame= 3421 fps=301 q=-0.0 size=N/A time=00:02:22.68 bitrate=N/A speed=12.6x    frame= 3604 fps=304 q=-0.0 size=N/A time=00:02:30.31 bitrate=N/A speed=12.7x    frame= 3779 fps=306 q=-0.0 size=N/A time=00:02:37.61 bitrate=N/A speed=12.7x    frame= 3978 fps=308 q=-0.0 size=N/A time=00:02:45.91 bitrate=N/A speed=12.9x    frame= 4143 fps=309 q=-0.0 size=N/A time=00:02:52.79 bitrate=N/A speed=12.9x    frame= 4324 fps=311 q=-0.0 size=N/A time=00:03:00.34 bitrate=N/A speed=  13x    frame= 4510 fps=312 q=-0.0 size=N/A time=00:03:08.10 bitrate=N/A speed=  13x    frame= 4689 fps=314 q=-0.0 size=N/A time=00:03:15.57 bitrate=N/A speed=13.1x    frame= 4874 fps=315 q=-0.0 size=N/A time=00:03:23.28 bitrate=N/A speed=13.1x    frame= 5060 fps=316 q=-0.0 size=N/A time=00:03:31.04 bitrate=N/A speed=13.2x    frame= 5238 fps=317 q=-0.0 size=N/A time=00:03:38.46 bitrate=N/A speed=13.2x    frame= 5426 fps=319 q=-0.0 size=N/A time=00:03:46.30 bitrate=N/A speed=13.3x    frame= 5605 fps=320 q=-0.0 size=N/A time=00:03:53.77 bitrate=N/A speed=13.3x    frame= 5796 fps=321 q=-0.0 size=N/A time=00:04:01.74 bitrate=N/A speed=13.4x    frame= 5981 fps=322 q=-0.0 size=N/A time=00:04:09.45 bitrate=N/A speed=13.4x    frame= 6159 fps=323 q=-0.0 size=N/A time=00:04:16.88 bitrate=N/A speed=13.5x    frame= 6346 fps=324 q=-0.0 size=N/A time=00:04:24.68 bitrate=N/A speed=13.5x    frame= 6528 fps=325 q=-0.0 size=N/A time=00:04:32.27 bitrate=N/A speed=13.5x    frame= 6708 fps=325 q=-0.0 size=N/A time=00:04:39.77 bitrate=N/A speed=13.6x    frame= 6896 fps=326 q=-0.0 size=N/A time=00:04:47.62 bitrate=N/A speed=13.6x    frame= 7066 fps=326 q=-0.0 size=N/A time=00:04:54.71 bitrate=N/A speed=13.6x    frame= 7249 fps=327 q=-0.0 size=N/A time=00:05:02.34 bitrate=N/A speed=13.6x    frame= 7420 fps=327 q=-0.0 size=N/A time=00:05:09.47 bitrate=N/A speed=13.6x    frame= 7592 fps=327 q=-0.0 size=N/A time=00:05:16.64 bitrate=N/A speed=13.6x    frame= 7760 fps=327 q=-0.0 size=N/A time=00:05:23.65 bitrate=N/A speed=13.6x    frame= 7934 fps=327 q=-0.0 size=N/A time=00:05:30.91 bitrate=N/A speed=13.7x    frame= 8108 fps=328 q=-0.0 size=N/A time=00:05:38.17 bitrate=N/A speed=13.7x    frame= 8278 fps=328 q=-0.0 size=N/A time=00:05:45.26 bitrate=N/A speed=13.7x    frame= 8458 fps=328 q=-0.0 size=N/A time=00:05:52.76 bitrate=N/A speed=13.7x    frame= 8640 fps=329 q=-0.0 size=N/A time=00:06:00.36 bitrate=N/A speed=13.7x    frame= 8821 fps=329 q=-0.0 size=N/A time=00:06:07.90 bitrate=N/A speed=13.7x    frame= 8993 fps=329 q=-0.0 size=N/A time=00:06:15.08 bitrate=N/A speed=13.7x    frame= 9181 fps=330 q=-0.0 size=N/A time=00:06:22.92 bitrate=N/A speed=13.7x    frame= 9358 fps=330 q=-0.0 size=N/A time=00:06:30.30 bitrate=N/A speed=13.8x    frame= 9537 fps=330 q=-0.0 size=N/A time=00:06:37.77 bitrate=N/A speed=13.8x    frame= 9727 fps=331 q=-0.0 size=N/A time=00:06:45.69 bitrate=N/A speed=13.8x    frame= 9900 fps=331 q=-0.0 size=N/A time=00:06:52.91 bitrate=N/A speed=13.8x    frame=10077 fps=331 q=-0.0 size=N/A time=00:07:00.29 bitrate=N/A speed=13.8x    frame=10250 fps=331 q=-0.0 size=N/A time=00:07:07.51 bitrate=N/A speed=13.8x    frame=10430 fps=332 q=-0.0 size=N/A time=00:07:15.01 bitrate=N/A speed=13.8x    frame=10603 fps=332 q=-0.0 size=N/A time=00:07:22.23 bitrate=N/A speed=13.8x    frame=10779 fps=332 q=-0.0 size=N/A time=00:07:29.57 bitrate=N/A speed=13.8x    frame=10954 fps=332 q=-0.0 size=N/A time=00:07:36.87 bitrate=N/A speed=13.8x    frame=11115 fps=332 q=-0.0 size=N/A time=00:07:43.58 bitrate=N/A speed=13.8x    frame=11294 fps=332 q=-0.0 size=N/A time=00:07:51.05 bitrate=N/A speed=13.8x    frame=11472 fps=332 q=-0.0 size=N/A time=00:07:58.47 bitrate=N/A speed=13.9x    frame=11661 fps=333 q=-0.0 size=N/A time=00:08:06.36 bitrate=N/A speed=13.9x    frame=11833 fps=333 q=-0.0 size=N/A time=00:08:13.53 bitrate=N/A speed=13.9x    frame=12007 fps=333 q=-0.0 size=N/A time=00:08:20.79 bitrate=N/A speed=13.9x    frame=12191 fps=333 q=-0.0 size=N/A time=00:08:28.46 bitrate=N/A speed=13.9x    frame=12373 fps=333 q=-0.0 size=N/A time=00:08:36.05 bitrate=N/A speed=13.9x    frame=12551 fps=333 q=-0.0 size=N/A time=00:08:43.48 bitrate=N/A speed=13.9x    frame=12726 fps=334 q=-0.0 size=N/A time=00:08:50.78 bitrate=N/A speed=13.9x    frame=12914 fps=334 q=-0.0 size=N/A time=00:08:58.62 bitrate=N/A speed=13.9x    frame=13091 fps=334 q=-0.0 size=N/A time=00:09:06.00 bitrate=N/A speed=13.9x    frame=13264 fps=334 q=-0.0 size=N/A time=00:09:13.21 bitrate=N/A speed=13.9x    frame=13444 fps=334 q=-0.0 size=N/A time=00:09:20.72 bitrate=N/A speed=13.9x    frame=13623 fps=334 q=-0.0 size=N/A time=00:09:28.19 bitrate=N/A speed=13.9x    frame=13798 fps=335 q=-0.0 size=N/A time=00:09:35.49 bitrate=N/A speed=  14x    frame=13979 fps=335 q=-0.0 size=N/A time=00:09:43.04 bitrate=N/A speed=  14x    frame=14134 fps=334 q=-0.0 size=N/A time=00:09:49.50 bitrate=N/A speed=13.9x    frame=14316 fps=335 q=-0.0 size=N/A time=00:09:57.09 bitrate=N/A speed=  14x    frame=14498 fps=335 q=-0.0 size=N/A time=00:10:04.68 bitrate=N/A speed=  14x    frame=14688 fps=335 q=-0.0 size=N/A time=00:10:12.61 bitrate=N/A speed=  14x    frame=14860 fps=335 q=-0.0 size=N/A time=00:10:19.78 bitrate=N/A speed=  14x    frame=15036 fps=335 q=-0.0 size=N/A time=00:10:27.12 bitrate=N/A speed=  14x    frame=15187 fps=335 q=-0.0 size=N/A time=00:10:33.42 bitrate=N/A speed=  14x    frame=15362 fps=335 q=-0.0 size=N/A time=00:10:40.72 bitrate=N/A speed=  14x    frame=15535 fps=335 q=-0.0 size=N/A time=00:10:47.93 bitrate=N/A speed=  14x    frame=15729 fps=335 q=-0.0 size=N/A time=00:10:56.03 bitrate=N/A speed=  14x    frame=15914 fps=335 q=-0.0 size=N/A time=00:11:03.74 bitrate=N/A speed=  14x    frame=16096 fps=336 q=-0.0 size=N/A time=00:11:11.33 bitrate=N/A speed=  14x    frame=16258 fps=335 q=-0.0 size=N/A time=00:11:18.09 bitrate=N/A speed=  14x    frame=16438 fps=336 q=-0.0 size=N/A time=00:11:25.60 bitrate=N/A speed=  14x    frame=16611 fps=336 q=-0.0 size=N/A time=00:11:32.81 bitrate=N/A speed=  14x    frame=16794 fps=336 q=-0.0 size=N/A time=00:11:40.44 bitrate=N/A speed=  14x    frame=16967 fps=336 q=-0.0 size=N/A time=00:11:47.66 bitrate=N/A speed=  14x    frame=17156 fps=336 q=-0.0 size=N/A time=00:11:55.54 bitrate=N/A speed=  14x    frame=17333 fps=336 q=-0.0 size=N/A time=00:12:02.93 bitrate=N/A speed=  14x    frame=17524 fps=336 q=-0.0 size=N/A time=00:12:10.89 bitrate=N/A speed=  14x    frame=17686 fps=336 q=-0.0 size=N/A time=00:12:17.65 bitrate=N/A speed=  14x    frame=17874 fps=337 q=-0.0 size=N/A time=00:12:25.49 bitrate=N/A speed=  14x    frame=18058 fps=337 q=-0.0 size=N/A time=00:12:33.16 bitrate=N/A speed=  14x    frame=18231 fps=337 q=-0.0 size=N/A time=00:12:40.38 bitrate=N/A speed=  14x    frame=18398 fps=337 q=-0.0 size=N/A time=00:12:47.34 bitrate=N/A speed=  14x    frame=18591 fps=337 q=-0.0 size=N/A time=00:12:55.39 bitrate=N/A speed=14.1x    frame=18773 fps=337 q=-0.0 size=N/A time=00:13:02.99 bitrate=N/A speed=14.1x    frame=18957 fps=337 q=-0.0 size=N/A time=00:13:10.66 bitrate=N/A speed=14.1x    frame=19142 fps=337 q=-0.0 size=N/A time=00:13:18.38 bitrate=N/A speed=14.1x    frame=19332 fps=338 q=-0.0 size=N/A time=00:13:26.30 bitrate=N/A speed=14.1x    frame=19513 fps=338 q=-0.0 size=N/A time=00:13:33.85 bitrate=N/A speed=14.1x    frame=19695 fps=338 q=-0.0 size=N/A time=00:13:41.44 bitrate=N/A speed=14.1x    frame=19883 fps=338 q=-0.0 size=N/A time=00:13:49.28 bitrate=N/A speed=14.1x    frame=20062 fps=338 q=-0.0 size=N/A time=00:13:56.75 bitrate=N/A speed=14.1x    frame=20256 fps=339 q=-0.0 size=N/A time=00:14:04.84 bitrate=N/A speed=14.1x    frame=20427 fps=339 q=-0.0 size=N/A time=00:14:11.97 bitrate=N/A speed=14.1x    frame=20600 fps=339 q=-0.0 size=N/A time=00:14:19.19 bitrate=N/A speed=14.1x    frame=20766 fps=338 q=-0.0 size=N/A time=00:14:26.11 bitrate=N/A speed=14.1x    frame=20962 fps=339 q=-0.0 size=N/A time=00:14:34.29 bitrate=N/A speed=14.1x    frame=21139 fps=339 q=-0.0 size=N/A time=00:14:41.67 bitrate=N/A speed=14.1x    frame=21323 fps=339 q=-0.0 size=N/A time=00:14:49.34 bitrate=N/A speed=14.1x    frame=21500 fps=339 q=-0.0 size=N/A time=00:14:56.72 bitrate=N/A speed=14.1x    frame=21688 fps=339 q=-0.0 size=N/A time=00:15:04.57 bitrate=N/A speed=14.1x    frame=21873 fps=339 q=-0.0 size=N/A time=00:15:12.28 bitrate=N/A speed=14.2x    frame=22059 fps=340 q=-0.0 size=N/A time=00:15:20.04 bitrate=N/A speed=14.2x    frame=22218 fps=339 q=-0.0 size=N/A time=00:15:26.67 bitrate=N/A speed=14.2x    frame=22408 fps=339 q=-0.0 size=N/A time=00:15:34.60 bitrate=N/A speed=14.2x    frame=22587 fps=340 q=-0.0 size=N/A time=00:15:42.06 bitrate=N/A speed=14.2x    frame=22769 fps=340 q=-0.0 size=N/A time=00:15:49.65 bitrate=N/A speed=14.2x    frame=22948 fps=340 q=-0.0 size=N/A time=00:15:57.12 bitrate=N/A speed=14.2x    frame=23129 fps=340 q=-0.0 size=N/A time=00:16:04.67 bitrate=N/A speed=14.2x    frame=23302 fps=340 q=-0.0 size=N/A time=00:16:11.88 bitrate=N/A speed=14.2x    frame=23499 fps=340 q=-0.0 size=N/A time=00:16:20.10 bitrate=N/A speed=14.2x    frame=23684 fps=340 q=-0.0 size=N/A time=00:16:27.82 bitrate=N/A speed=14.2x    frame=23869 fps=340 q=-0.0 size=N/A time=00:16:35.53 bitrate=N/A speed=14.2x    frame=24047 fps=340 q=-0.0 size=N/A time=00:16:42.96 bitrate=N/A speed=14.2x    frame=24224 fps=340 q=-0.0 size=N/A time=00:16:50.34 bitrate=N/A speed=14.2x    frame=24406 fps=341 q=-0.0 size=N/A time=00:16:57.93 bitrate=N/A speed=14.2x    frame=24593 fps=341 q=-0.0 size=N/A time=00:17:05.73 bitrate=N/A speed=14.2x    frame=24778 fps=341 q=-0.0 size=N/A time=00:17:13.44 bitrate=N/A speed=14.2x    frame=24964 fps=341 q=-0.0 size=N/A time=00:17:21.20 bitrate=N/A speed=14.2x    frame=25151 fps=341 q=-0.0 size=N/A time=00:17:29.00 bitrate=N/A speed=14.2x    frame=25321 fps=341 q=-0.0 size=N/A time=00:17:36.09 bitrate=N/A speed=14.2x    frame=25516 fps=341 q=-0.0 size=N/A time=00:17:44.22 bitrate=N/A speed=14.2x    frame=25692 fps=341 q=-0.0 size=N/A time=00:17:51.57 bitrate=N/A speed=14.2x    frame=25871 fps=341 q=-0.0 size=N/A time=00:17:59.03 bitrate=N/A speed=14.2x    frame=26063 fps=342 q=-0.0 size=N/A time=00:18:07.04 bitrate=N/A speed=14.2x    frame=26239 fps=342 q=-0.0 size=N/A time=00:18:14.38 bitrate=N/A speed=14.2x    frame=26424 fps=342 q=-0.0 size=N/A time=00:18:22.10 bitrate=N/A speed=14.3x    frame=26605 fps=342 q=-0.0 size=N/A time=00:18:29.65 bitrate=N/A speed=14.3x    frame=26785 fps=342 q=-0.0 size=N/A time=00:18:37.15 bitrate=N/A speed=14.3x    frame=26945 fps=342 q=-0.0 size=N/A time=00:18:43.83 bitrate=N/A speed=14.2x    frame=27110 fps=341 q=-0.0 size=N/A time=00:18:50.71 bitrate=N/A speed=14.2x    frame=27279 fps=341 q=-0.0 size=N/A time=00:18:57.76 bitrate=N/A speed=14.2x    frame=27453 fps=341 q=-0.0 size=N/A time=00:19:05.01 bitrate=N/A speed=14.2x    frame=27632 fps=341 q=-0.0 size=N/A time=00:19:12.48 bitrate=N/A speed=14.2x    frame=27806 fps=341 q=-0.0 size=N/A time=00:19:19.74 bitrate=N/A speed=14.2x    frame=27979 fps=341 q=-0.0 size=N/A time=00:19:26.95 bitrate=N/A speed=14.2x    frame=28158 fps=341 q=-0.0 size=N/A time=00:19:34.42 bitrate=N/A speed=14.2x    frame=28337 fps=341 q=-0.0 size=N/A time=00:19:41.88 bitrate=N/A speed=14.2x    frame=28517 fps=341 q=-0.0 size=N/A time=00:19:49.39 bitrate=N/A speed=14.2x    frame=28699 fps=341 q=-0.0 size=N/A time=00:19:56.98 bitrate=N/A speed=14.2x    frame=28858 fps=341 q=-0.0 size=N/A time=00:20:03.61 bitrate=N/A speed=14.2x    frame=29012 fps=341 q=-0.0 size=N/A time=00:20:10.04 bitrate=N/A speed=14.2x    frame=29174 fps=341 q=-0.0 size=N/A time=00:20:16.79 bitrate=N/A speed=14.2x    frame=29348 fps=341 q=-0.0 size=N/A time=00:20:24.05 bitrate=N/A speed=14.2x    frame=29505 fps=341 q=-0.0 size=N/A time=00:20:30.60 bitrate=N/A speed=14.2x    frame=29671 fps=341 q=-0.0 size=N/A time=00:20:37.52 bitrate=N/A speed=14.2x    frame=29838 fps=340 q=-0.0 size=N/A time=00:20:44.49 bitrate=N/A speed=14.2x    frame=29992 fps=340 q=-0.0 size=N/A time=00:20:50.91 bitrate=N/A speed=14.2x    frame=30151 fps=340 q=-0.0 size=N/A time=00:20:57.54 bitrate=N/A speed=14.2x    frame=30338 fps=340 q=-0.0 size=N/A time=00:21:05.34 bitrate=N/A speed=14.2x    frame=30511 fps=340 q=-0.0 size=N/A time=00:21:12.56 bitrate=N/A speed=14.2x    frame=30693 fps=340 q=-0.0 size=N/A time=00:21:20.15 bitrate=N/A speed=14.2x    frame=30876 fps=340 q=-0.0 size=N/A time=00:21:27.78 bitrate=N/A speed=14.2x    frame=31050 fps=340 q=-0.0 size=N/A time=00:21:35.04 bitrate=N/A speed=14.2x    frame=31237 fps=340 q=-0.0 size=N/A time=00:21:42.84 bitrate=N/A speed=14.2x    frame=31407 fps=340 q=-0.0 size=N/A time=00:21:49.93 bitrate=N/A speed=14.2x    frame=31585 fps=340 q=-0.0 size=N/A time=00:21:57.35 bitrate=N/A speed=14.2x    frame=31761 fps=340 q=-0.0 size=N/A time=00:22:04.69 bitrate=N/A speed=14.2x    frame=31933 fps=340 q=-0.0 size=N/A time=00:22:11.87 bitrate=N/A speed=14.2x    frame=32101 fps=340 q=-0.0 size=N/A time=00:22:18.87 bitrate=N/A speed=14.2x    frame=32286 fps=340 q=-0.0 size=N/A time=00:22:26.59 bitrate=N/A speed=14.2x    frame=32460 fps=340 q=-0.0 size=N/A time=00:22:33.85 bitrate=N/A speed=14.2x    frame=32638 fps=340 q=-0.0 size=N/A time=00:22:41.27 bitrate=N/A speed=14.2x    frame=32774 fps=340 q=-0.0 size=N/A time=00:22:46.94 bitrate=N/A speed=14.2x    frame=32932 fps=340 q=-0.0 size=N/A time=00:22:53.53 bitrate=N/A speed=14.2x    frame=33110 fps=340 q=-0.0 size=N/A time=00:23:00.96 bitrate=N/A speed=14.2x    frame=33271 fps=340 q=-0.0 size=N/A time=00:23:07.67 bitrate=N/A speed=14.2x    frame=33443 fps=339 q=-0.0 size=N/A time=00:23:14.85 bitrate=N/A speed=14.2x    frame=33578 fps=339 q=-0.0 size=N/A time=00:23:20.48 bitrate=N/A speed=14.1x    frame=33722 fps=339 q=-0.0 size=N/A time=00:23:26.48 bitrate=N/A speed=14.1x    frame=33839 fps=338 q=-0.0 size=N/A time=00:23:31.36 bitrate=N/A speed=14.1x    frame=33980 fps=338 q=-0.0 size=N/A time=00:23:37.24 bitrate=N/A speed=14.1x    frame=34135 fps=338 q=-0.0 size=N/A time=00:23:43.71 bitrate=N/A speed=14.1x    frame=34280 fps=337 q=-0.0 size=N/A time=00:23:49.76 bitrate=N/A speed=14.1x    frame=34404 fps=337 q=-0.0 size=N/A time=00:23:54.93 bitrate=N/A speed=  14x    frame=34559 fps=337 q=-0.0 size=N/A time=00:24:01.39 bitrate=N/A speed=  14x    [Parsed_psnr_16 @ 000001dbe06bec40] PSNR y:48.949222 u:50.339577 v:50.388820 average:49.371627 min:38.022370 max:inf
[out#0/null @ 000001dbd3d6dec0] video:14903KiB audio:271276KiB subtitle:0KiB other streams:0KiB global headers:0KiB muxing overhead: unknown
frame=34683 fps=337 q=-0.0 Lsize=N/A time=00:24:06.57 bitrate=N/A speed=  14x    
